<?xml version="1.0" encoding="UTF-8"?>
<svg version="1.1" xmlns="http://www.w3.org/2000/svg" width="1280" height="268">
<path d="M0 0 C422.4 0 844.8 0 1280 0 C1280 88.44 1280 176.88 1280 268 C857.6 268 435.2 268 0 268 C0 179.56 0 91.12 0 0 Z " fill="#FDFEFE" transform="translate(0,0)"/>
<path d="M0 0 C2.0276983 -0.0095929 4.05433083 -0.04061367 6.08178711 -0.07226562 C31.5549685 -0.27950494 54.13737048 8.78922207 72.62670898 26.30273438 C95.48574224 49.20942371 98.25670722 78.99818239 98.32983398 109.78320312 C98.33407505 111.00431006 98.33407505 111.00431006 98.33840179 112.25008583 C98.35326266 116.54750503 98.36257803 120.84489171 98.36694336 125.14233398 C98.37244952 129.55001326 98.39656011 133.95738705 98.42491531 138.36497021 C98.44361812 141.78726566 98.44875106 145.209488 98.45027924 148.63183022 C98.45328238 150.25636806 98.4612306 151.88090536 98.47446442 153.50539207 C98.56762491 165.80478486 98.19293793 176.81995638 89.25561523 186.20507812 C73.20890223 201.56530073 51.29250612 199.54088387 30.56420898 199.36523438 C28.47371853 199.3551738 26.38322333 199.34605345 24.29272461 199.33789062 C19.23726603 199.31614562 14.18204194 199.28178944 9.12670898 199.24023438 C9.03340947 191.62458238 8.96264347 184.00899075 8.9194603 176.39289474 C8.89871854 172.85514674 8.87065238 169.31779403 8.82495117 165.78027344 C8.77256662 161.6991835 8.75365327 157.6184989 8.73608398 153.53710938 C8.71543884 152.28661804 8.6947937 151.03612671 8.67352295 149.7477417 C8.67033358 137.07639207 11.47533158 127.66995794 20.36108398 118.65429688 C28.36362521 111.66902784 36.86052702 109.17901277 47.12670898 107.24023438 C49.71173854 106.72788618 52.29512208 106.20715626 54.87670898 105.67773438 C56.63241211 105.33548828 56.63241211 105.33548828 58.42358398 104.98632812 C59.31561523 104.74011719 60.20764648 104.49390625 61.12670898 104.24023438 C61.45670898 103.58023438 61.78670898 102.92023438 62.12670898 102.24023438 C60.38647461 102.18416016 60.38647461 102.18416016 58.61108398 102.12695312 C43.0503951 101.52082263 28.94200079 99.57579452 16.87670898 88.74023438 C6.31085035 77.24145598 2.7155004 61.52751805 3.12670898 46.24023438 C1.80670898 46.24023438 0.48670898 46.24023438 -0.87329102 46.24023438 C-0.85137695 47.23925781 -0.82946289 48.23828125 -0.80688477 49.26757812 C-1.05264352 63.96973414 -5.59089236 78.73973376 -15.92407227 89.56054688 C-25.92715339 98.18043642 -35.25229769 99.54445597 -48.02563477 99.43554688 C-49.28090469 99.43271698 -50.53617462 99.42988708 -51.82948303 99.42697144 C-55.14543448 99.41770565 -58.46110403 99.39977737 -61.77697754 99.37756348 C-65.16908347 99.35700032 -68.56121867 99.34794747 -71.95336914 99.33789062 C-78.59342019 99.31588561 -85.23333935 99.28244932 -91.87329102 99.24023438 C-91.88325569 97.32715909 -91.89034989 95.41406873 -91.89624023 93.50097656 C-91.90050018 92.43562683 -91.90476013 91.3702771 -91.90914917 90.27264404 C-91.80649786 81.59175071 -90.56712269 72.50967115 -87.87329102 64.24023438 C-87.56907227 63.29148438 -87.26485352 62.34273437 -86.95141602 61.36523438 C-78.55521981 37.44182602 -59.86548873 17.5743475 -37.16625977 6.59179688 C-25.14828097 1.65915077 -12.91204051 0.03674718 0 0 Z " fill="#5376FE" transform="translate(131.873291015625,37.759765625)"/>
<path d="M0 0 C11.22 0 22.44 0 34 0 C35.02996094 2.18109375 36.05992187 4.3621875 37.12109375 6.609375 C37.47897476 7.36719269 37.83685577 8.12501038 38.20558167 8.90579224 C40.05143635 12.81444716 41.89694539 16.72326482 43.74194336 20.63232422 C47.32114519 28.21490075 50.90180339 35.79675571 54.49455261 43.3729248 C55.99289108 46.53281874 57.48967012 49.69345027 58.98635864 52.85412598 C59.69007597 54.33911063 60.39453366 55.82374472 61.099823 57.3079834 C64.97336155 65.46036976 68.78500405 73.6394282 72.49609375 81.8671875 C73.0225222 83.01950363 73.0225222 83.01950363 73.55958557 84.19509888 C76 89.65177873 76 89.65177873 76 93 C76.66 93 77.32 93 78 93 C78.10441406 92.34257812 78.20882812 91.68515625 78.31640625 91.0078125 C81.35987609 77.61654521 88.27333025 65.26099278 94.77001953 53.29736328 C96.71106605 49.67186751 98.54789161 45.99641875 100.375 42.3125 C100.68429443 41.68972168 100.99358887 41.06694336 101.31225586 40.42529297 C101.90466768 39.23081306 102.49624042 38.03591657 103.08691406 36.84057617 C104.41474331 34.16397063 105.76030051 31.49629462 107.10595703 28.82861328 C108.52063755 25.93512419 109.75039282 22.96781706 111 20 C113.93380345 13.30327473 116.97456547 6.65595596 120 0 C130.56 0 141.12 0 152 0 C152 44.88 152 89.76 152 136 C143.42 136 134.84 136 126 136 C125.34 107.29 124.68 78.58 124 49 C120.535 57.91 120.535 57.91 117 67 C115.70494353 70.03643183 114.40734032 73.0207541 113 76 C112.56606934 76.92087402 112.13213867 77.84174805 111.68505859 78.79052734 C110.1961104 81.92786464 108.69405208 85.05858024 107.1875 88.1875 C106.65415039 89.29738281 106.12080078 90.40726562 105.57128906 91.55078125 C102.32864593 98.28444017 99.0282984 104.98263037 95.65625 111.65234375 C93.27137565 116.47271477 91.0017165 121.34616506 88.75097656 126.23046875 C88.13091028 127.56580084 87.50003269 128.8961843 86.85668945 130.22045898 C86.10250021 131.78708349 85.4040509 133.38028331 84.71484375 134.9765625 C83 137 83 137 79.64453125 137.48828125 C78.37996094 137.43027344 77.11539063 137.37226563 75.8125 137.3125 C74.54019531 137.26738281 73.26789063 137.22226563 71.95703125 137.17578125 C70.98121094 137.11777344 70.00539063 137.05976563 69 137 C66.88432828 132.91977598 64.91800559 128.89426208 63.28515625 124.59765625 C60.60706643 117.83575986 57.38104022 111.34075348 54.1875 104.8125 C52.93192168 102.23388453 51.67870081 99.65412694 50.42578125 97.07421875 C50.12333496 96.45216553 49.82088867 95.8301123 49.50927734 95.18920898 C46.73611494 89.4770142 44.05712633 83.72567793 41.4296875 77.9453125 C40.33731117 75.69489787 39.19821209 73.57393864 37.94140625 71.41796875 C36.38032354 68.66958369 35.15240244 66.13576145 34.0625 63.1875 C32.67995374 59.57409354 31.12070871 56.12601043 29.37109375 52.67578125 C28.92564209 51.79446533 28.48019043 50.91314941 28.02124023 50.00512695 C27.68423096 49.34343506 27.34722168 48.68174316 27 48 C27.03029297 48.88405518 27.06058594 49.76811035 27.09179688 50.67895508 C28.04305427 79.45632076 28.10307079 108.2088935 28 137 C18.76 137 9.52 137 0 137 C0 91.79 0 46.58 0 0 Z " fill="#0F1A66" transform="translate(294,88)"/>
<path d="M0 0 C8.25 0 16.5 0 25 0 C25 46.2 25 92.4 25 140 C16.42 140 7.84 140 -1 140 C-1 136.37 -1 132.74 -1 129 C-2.11375 130.03125 -3.2275 131.0625 -4.375 132.125 C-16.43967126 142.70578121 -26.71260631 143.82606518 -42.26220703 143.2265625 C-47.84744939 142.76436303 -52.26729638 140.88375349 -57 138 C-58.20269531 137.31357422 -58.20269531 137.31357422 -59.4296875 136.61328125 C-68.88352423 130.80410548 -75.63063308 123.24484138 -80 113 C-80 112.01 -80 111.02 -80 110 C-80.66 110 -81.32 110 -82 110 C-84.73758405 97.66852796 -84.24956123 82.87084005 -80 71 C-79.62875 69.80375 -79.2575 68.6075 -78.875 67.375 C-76.00485805 62.20874449 -72.12570051 58.19808122 -68 54 C-67.28457031 53.26007813 -66.56914063 52.52015625 -65.83203125 51.7578125 C-56.85375839 43.0902631 -44.96826459 39.10650757 -32.625 38.6875 C-19.35149212 39.02026204 -10.13797566 44.88961947 0 53 C0 35.51 0 18.02 0 0 Z " fill="#0F1A65" transform="translate(667,85)"/>
<path d="M0 0 C10.56618376 7.15882847 18.76776594 17.91873831 21.375 30.6875 C22.69681851 47.61953937 21.65383276 62.24054806 10.375 75.6875 C0.21511772 87.49493076 -14.35531563 94.71535214 -29.87890625 95.9453125 C-43.62149021 96.39786741 -56.44917873 91.89306674 -66.86328125 82.71484375 C-68.04239494 81.52596514 -69.19924864 80.31407987 -70.3203125 79.0703125 C-71.5973475 77.55813434 -71.5973475 77.55813434 -73.625 76.6875 C-83.5905 61.6369648 -87.23489514 45.81163841 -83.9609375 28.09375 C-79.99151737 14.70127165 -70.35672979 4.45123756 -58.67578125 -2.73828125 C-53.55917631 -5.3784756 -48.18541671 -6.89379286 -42.625 -8.3125 C-41.96757813 -8.50328125 -41.31015625 -8.6940625 -40.6328125 -8.890625 C-26.67630112 -11.82312156 -11.79104992 -7.50064356 0 0 Z " fill="#0F1A66" transform="translate(993.625,133.3125)"/>
<path d="M0 0 C5.38872062 4.60856256 9.94777707 9.46640673 13.2421875 15.80078125 C13.2421875 16.46078125 13.2421875 17.12078125 13.2421875 17.80078125 C9.49831654 19.64682921 5.74615959 21.47537308 1.9921875 23.30078125 C0.92871094 23.82542969 -0.13476562 24.35007813 -1.23046875 24.890625 C-2.76767578 25.63505859 -2.76767578 25.63505859 -4.3359375 26.39453125 C-5.27856445 26.85537109 -6.22119141 27.31621094 -7.19238281 27.79101562 C-9.7578125 28.80078125 -9.7578125 28.80078125 -13.7578125 28.80078125 C-15.1796875 27.26171875 -15.1796875 27.26171875 -16.5078125 25.17578125 C-21.95787622 17.44461317 -29.9883526 12.43591649 -39.18359375 10.21484375 C-50.59232946 8.37975121 -61.69393429 10.39615105 -71.5703125 16.48828125 C-82.81656104 24.7217733 -89.25019481 36.21054552 -91.7578125 49.80078125 C-92.25037865 54.463422 -92.55951785 59.11692491 -92.7578125 63.80078125 C-92.0978125 63.80078125 -91.4378125 63.80078125 -90.7578125 63.80078125 C-90.55027344 64.53941406 -90.34273437 65.27804688 -90.12890625 66.0390625 C-86.987413 76.38364489 -82.91093494 85.82438135 -73.296875 91.5234375 C-61.65137168 97.38202148 -49.95087613 101.4844227 -36.89453125 97.625 C-26.63691106 93.66822146 -19.61250092 89.12491466 -13.7578125 79.80078125 C-9.96669718 80.4291263 -6.75000798 81.53606928 -3.23828125 83.0859375 C-2.21669922 83.53388672 -1.19511719 83.98183594 -0.14257812 84.44335938 C0.91251953 84.91193359 1.96761719 85.38050781 3.0546875 85.86328125 C4.12912109 86.33572266 5.20355469 86.80816406 6.31054688 87.29492188 C8.95642126 88.45910661 11.60017745 89.62785957 14.2421875 90.80078125 C14.2421875 91.46078125 14.2421875 92.12078125 14.2421875 92.80078125 C13.5821875 92.80078125 12.9221875 92.80078125 12.2421875 92.80078125 C11.87867188 93.87585938 11.87867188 93.87585938 11.5078125 94.97265625 C5.50432134 108.38786488 -9.85572198 116.60671316 -22.84375 121.828125 C-31.56459727 124.73897081 -39.31740389 125.16673557 -48.5078125 125.17578125 C-49.80203125 125.20027344 -51.09625 125.22476563 -52.4296875 125.25 C-69.7943529 125.30251411 -84.75034862 118.11161941 -97.7578125 106.80078125 C-98.34820313 106.31609375 -98.93859375 105.83140625 -99.546875 105.33203125 C-109.06477985 96.81372371 -114.31067073 84.6339026 -117.8828125 72.65234375 C-118.47543053 69.92697378 -118.47543053 69.92697378 -119.7578125 68.80078125 C-121.43699341 47.77292085 -119.12478047 26.762228 -105.7578125 9.80078125 C-78.11082423 -21.92318224 -33.15612055 -26.44036243 0 0 Z " fill="#0E1A65" transform="translate(882.7578125,103.19921875)"/>
<path d="M0 0 C9.05488984 7.10187438 14.44687425 18.45384605 16.91796875 29.53125 C17.57244899 35.19524566 17.45554312 40.86290251 16.91796875 46.53125 C15.91796875 47.53125 15.91796875 47.53125 13.02635193 47.65150452 C11.73173538 47.64928391 10.43711884 47.64706329 9.10327148 47.64477539 C8.03503647 47.64499443 8.03503647 47.64499443 6.94522095 47.6452179 C4.58063763 47.6445187 2.21613214 47.63672606 -0.1484375 47.62890625 C-1.78368588 47.62704209 -3.41893482 47.62561818 -5.05418396 47.62461853 C-9.3663791 47.62079318 -13.67854077 47.61096275 -17.99072266 47.59991455 C-22.38769071 47.5897008 -26.78466414 47.58512099 -31.18164062 47.58007812 C-39.81511956 47.56934049 -48.44857125 47.55226387 -57.08203125 47.53125 C-56.45281139 49.14532041 -55.81955034 50.75781586 -55.18457031 52.36962891 C-54.83235413 53.26775299 -54.48013794 54.16587708 -54.11724854 55.09121704 C-51.60023123 61.02388961 -46.66999741 66.31293264 -40.70703125 68.8984375 C-32.35959859 70.91076502 -22.8553796 71.20589459 -15.26953125 66.84375 C-11.96931632 64.47681561 -9.30646573 61.96901238 -7.08203125 58.53125 C-4.19220208 59.13863088 -1.99244867 60.01896967 0.51953125 61.5625 C1.174375 61.96082031 1.82921875 62.35914063 2.50390625 62.76953125 C3.17679688 63.18589844 3.8496875 63.60226563 4.54296875 64.03125 C9.15463585 66.91611818 9.15463585 66.91611818 13.91796875 69.53125 C12.99724801 75.06785071 9.05636403 78.0555177 4.91796875 81.53125 C-8.74584323 91.2911157 -23.61890771 94.1643404 -40.08203125 92.53125 C-55.16473803 89.97972103 -67.61168537 82.39143807 -76.828125 70.2265625 C-85.47295452 57.0760737 -86.99438775 41.41812779 -84.5390625 26.15625 C-83.87637624 23.52014998 -83.07572124 21.05905786 -82.08203125 18.53125 C-81.73398438 17.53351563 -81.73398438 17.53351563 -81.37890625 16.515625 C-77.02089891 6.00513671 -67.08184214 -2.59792989 -57.08203125 -7.46875 C-55.31859375 -8.335 -55.31859375 -8.335 -53.51953125 -9.21875 C-34.37662962 -16.17980514 -16.22779504 -11.44775035 0 0 Z " fill="#0F1A66" transform="translate(1187.08203125,136.46875)"/>
<path d="M0 0 C7.98724228 6.11297965 13.15025157 15.4693844 16 25 C16.20496094 25.66128906 16.40992188 26.32257813 16.62109375 27.00390625 C18.56948009 34.30027716 18 39.94512571 18 48 C-6.75 48 -31.5 48 -57 48 C-53.5847484 57.3919419 -50.93610163 64.19487049 -42.5625 69.5 C-35.57846924 72.5359432 -26.13764911 72.24659941 -18.953125 70.08203125 C-13.6717325 67.6093793 -9.84211329 64.34765451 -6 60 C-1.41532394 61.64692247 2.6381576 63.96485125 6.8125 66.4375 C7.85180664 67.03014648 7.85180664 67.03014648 8.91210938 67.63476562 C10.66176642 68.67076945 12.33862629 69.8276344 14 71 C14 74.60113466 12.84890702 75.83890213 10.52880859 78.47949219 C8.04556364 80.94925418 5.28154464 82.78810755 2.3125 84.625 C1.69890625 85.01107422 1.0853125 85.39714844 0.453125 85.79492188 C-13.24441751 94.21647985 -29.25102317 96.44755656 -45.0703125 93.31640625 C-58.17995761 89.84451123 -70.11220067 82.52930895 -77.5 70.9375 C-79.76792295 66.88405761 -80.79890549 63.62517367 -81 59 C-81.66 59 -82.32 59 -83 59 C-85.38435181 43.50171322 -85.16338716 24.82467393 -76.2421875 11.34375 C-56.55612446 -14.28673207 -26.70902085 -16.89900515 0 0 Z " fill="#0E1965" transform="translate(551,135)"/>
<path d="M0 0 C2.25271759 -0.00984042 4.50456893 -0.04110585 6.75708008 -0.07226562 C20.60536643 -0.17230377 33.50950907 1.58604238 44.0480957 11.17773438 C51.15544269 18.58019612 55.54402498 28.45771453 55.55249023 38.72729492 C55.5556424 39.82490646 55.55879456 40.92251801 55.56204224 42.0533905 C55.55900589 43.822304 55.55900589 43.822304 55.5559082 45.62695312 C55.55686493 46.83970413 55.55782166 48.05245514 55.55880737 49.30195618 C55.55948762 51.86316988 55.55764417 54.42438532 55.5534668 56.9855957 C55.54810252 60.92272775 55.55342421 64.85974644 55.55981445 68.796875 C55.55915392 71.2819013 55.55787326 73.76692752 55.5559082 76.25195312 C55.55793243 77.43730148 55.55995667 78.62264984 55.56204224 79.84391785 C55.557314 81.47615044 55.557314 81.47615044 55.55249023 83.14135742 C55.55169464 84.10414108 55.55089905 85.06692474 55.55007935 86.05888367 C55.4230957 88.24023438 55.4230957 88.24023438 54.4230957 89.24023438 C51.7373669 89.34173439 49.07801514 89.37988997 46.3918457 89.37304688 C45.56793335 89.3740036 44.744021 89.37496033 43.8951416 89.37594604 C42.13639246 89.37662908 40.37764084 89.37476628 38.61889648 89.37060547 C35.98976557 89.36536721 33.36081421 89.37048847 30.73168945 89.37695312 C-10.06263336 89.397466 -10.06263336 89.397466 -22.41674805 78.65039062 C-31.34911643 68.68425809 -32.88313438 57.08050492 -32.7722168 44.30664062 C-32.7693869 43.07356674 -32.76655701 41.84049286 -32.76364136 40.5700531 C-32.7524829 36.64751312 -32.72738581 32.72520487 -32.7019043 28.80273438 C-32.69073826 26.13672209 -32.68274406 23.47071198 -32.67456055 20.8046875 C-32.65255771 14.2831246 -32.61912308 7.76169605 -32.5769043 1.24023438 C-21.71499676 0.50278743 -10.88792407 0.02864301 0 0 Z " fill="#5376FE" transform="translate(72.576904296875,147.759765625)"/>
<path d="M0 0 C-0.55363461 8.02770189 -2.65687944 15.33854067 -5 23 C-6.2065625 22.89300781 -7.413125 22.78601563 -8.65625 22.67578125 C-10.27076306 22.5537541 -11.88535085 22.43271291 -13.5 22.3125 C-14.68722656 22.20325195 -14.68722656 22.20325195 -15.8984375 22.09179688 C-22.41144596 21.6380217 -27.85547045 22.48198962 -33.05859375 26.6484375 C-33.51363281 27.21820313 -33.96867187 27.78796875 -34.4375 28.375 C-34.91058594 28.93960938 -35.38367187 29.50421875 -35.87109375 30.0859375 C-38.23917799 34.10102843 -38.1392921 38.61115503 -38.20532227 43.16723633 C-38.22526749 44.38812454 -38.24521271 45.60901276 -38.26576233 46.86689758 C-38.28247482 48.17539169 -38.29918732 49.4838858 -38.31640625 50.83203125 C-38.3369958 52.19252628 -38.35799278 53.55301519 -38.37937927 54.91349792 C-38.43439347 58.48248323 -38.48389317 62.05152427 -38.53222656 65.62060547 C-38.58259306 69.26730258 -38.63814941 72.91392041 -38.69335938 76.56054688 C-38.80117618 83.70696993 -38.90035944 90.85343954 -39 98 C-47.91 98 -56.82 98 -66 98 C-66 65.99 -66 33.98 -66 1 C-59.31132219 0.39193838 -52.97055685 -0.14564576 -46.3125 -0.0625 C-45.59900391 -0.05798828 -44.88550781 -0.05347656 -44.15039062 -0.04882812 C-42.43355526 -0.03730574 -40.71676457 -0.0193863 -39 0 C-39 3.3 -39 6.6 -39 10 C-38.23816406 9.38511719 -37.47632813 8.77023438 -36.69140625 8.13671875 C-27.12203732 0.64608914 -11.91871007 -7.94580671 0 0 Z " fill="#111C67" transform="translate(1099,127)"/>
<path d="M0 0 C5.08172943 3.26924593 9.17500879 7.31921919 11.375 13.015625 C13.25493267 21.99230351 14.00468347 33.96970103 9.3125 42.1484375 C8.879375 42.75945312 8.44625 43.37046875 8 44 C7.525625 44.71414062 7.05125 45.42828125 6.5625 46.1640625 C1.73280645 52.54947464 -4.32961263 55.09647674 -12.1328125 56.33984375 C-19.84417153 56.73009471 -28.13709726 53.93016821 -34 49 C-40.23350512 42.13715061 -42.39742814 35.43380078 -42.375 26.125 C-42.37338867 25.42463623 -42.37177734 24.72427246 -42.37011719 24.00268555 C-42.23304919 18.20081221 -41.11743874 13.86017359 -38 9 C-37.4225 8.0925 -36.845 7.185 -36.25 6.25 C-25.76067921 -4.23932079 -13.29132692 -6.45469612 0 0 Z " fill="#FBFBFC" transform="translate(653,150)"/>
<path d="M0 0 C1.06263062 0.00374634 1.06263062 0.00374634 2.14672852 0.00756836 C3.43341431 0.02122437 3.43341431 0.02122437 4.74609375 0.03515625 C6.25121799 0.04666574 7.75634521 0.05778937 9.26147461 0.06860352 C10.55577393 0.07819092 11.85007324 0.08777832 13.18359375 0.09765625 C13.28531942 19.83526115 12.99076261 39.56740799 12.72003174 59.30255127 C12.65863006 63.80194686 12.59892685 68.30136499 12.5390625 72.80078125 C12.4221951 81.56642861 12.30350549 90.33205001 12.18359375 99.09765625 C8.03777488 99.12652376 3.89198159 99.14440952 -0.25390625 99.16015625 C-2.02991211 99.17272461 -2.02991211 99.17272461 -3.84179688 99.18554688 C-4.96650391 99.18876953 -6.09121094 99.19199219 -7.25 99.1953125 C-8.8131897 99.20316772 -8.8131897 99.20316772 -10.40795898 99.21118164 C-12.81640625 99.09765625 -12.81640625 99.09765625 -13.81640625 98.09765625 C-13.91170237 95.08415387 -13.94192529 92.09361519 -13.92993164 89.07983398 C-13.93007767 88.13359161 -13.93022369 87.18734924 -13.93037415 86.21243286 C-13.92967461 83.06868233 -13.92188034 79.92499024 -13.9140625 76.78125 C-13.91219846 74.60791557 -13.91077449 72.43458073 -13.90977478 70.26124573 C-13.90594846 64.5286443 -13.89611722 58.79606802 -13.8850708 53.06347656 C-13.87485912 47.21875346 -13.87027768 41.37402632 -13.86523438 35.52929688 C-13.85449505 24.05207225 -13.83741727 12.57486634 -13.81640625 1.09765625 C-12.37224541 0.93222189 -10.92792397 0.76818898 -9.48353577 0.60475159 C-8.67924668 0.51325616 -7.8749576 0.42176073 -7.04629612 0.32749271 C-4.68684807 0.08430259 -2.37168461 -0.01756803 0 0 Z " fill="#0E1966" transform="translate(730.81640625,125.90234375)"/>
<path d="M0 0 C5.91082503 4.77896492 10.38466429 11.35120472 11.22241211 19.04174805 C11.34010736 21.323011 11.37118666 23.59081053 11.375 25.875 C11.39949219 26.63941406 11.42398438 27.40382812 11.44921875 28.19140625 C11.48385024 34.99072234 9.54006302 40.04095751 5.10546875 45.20703125 C-2.31338771 51.41711273 -9.25276476 54.18796321 -19 54 C-26.50708554 52.95919463 -32.15739837 49.83044942 -37 44 C-42.71272815 35.67415045 -43.09224762 26.7189811 -42 17 C-40.46118533 11.03300057 -37.70308395 7.01482776 -33 3 C-32.236875 2.29875 -31.47375 1.5975 -30.6875 0.875 C-20.73650604 -6.06755393 -10.62994748 -5.20477492 0 0 Z " fill="#FBFBFC" transform="translate(977,152)"/>
<path d="M0 0 C3.85544798 1.99657127 5.59805092 3.39707638 8 7 C8.30078125 9.7421875 8.30078125 9.7421875 8.3125 12.875 C8.32925781 13.90367188 8.34601562 14.93234375 8.36328125 15.9921875 C7.80575586 20.60825792 5.96559294 23.01931967 2.75 26.28515625 C-0.71510589 28.44592541 -2.94099614 28.5031089 -7 28.4375 C-8.19625 28.43621094 -9.3925 28.43492188 -10.625 28.43359375 C-15.19100317 27.84698918 -17.84146595 26.35828131 -20.8125 22.875 C-22.81806811 18.01941404 -22.4776166 13.33501447 -21.4375 8.25 C-16.59887826 0.67650511 -8.43166148 -0.97036229 0 0 Z " fill="#0F1A65" transform="translate(737,82)"/>
<path d="M0 0 C4.48206019 3.289329 8.67348513 7.55141263 10.5625 12.875 C10.5625 14.525 10.5625 16.175 10.5625 17.875 C-4.6175 18.205 -19.7975 18.535 -35.4375 18.875 C-32.13389237 8.9641771 -28.84215801 4.24016442 -20.125 -1.1875 C-13.30270134 -2.92198271 -6.2793017 -3.68671123 0 0 Z " fill="#F6F7F9" transform="translate(529.4375,147.125)"/>
<path d="M0 0 C4.22358861 2.99960987 7.81776021 5.74560092 9 11 C9 12.98 9 14.96 9 17 C-5.52 17 -20.04 17 -35 17 C-33.79228164 9.75368982 -31.77761039 6.19268959 -26.0625 1.75 C-17.78734731 -4.05019876 -9.08060923 -5.13996749 0 0 Z " fill="#F8F8FA" transform="translate(1165,148)"/>
<path d="M0 0 C3.40654184 2.14760246 5.77828524 4.11272577 7 8 C7.42448472 11.2745964 7.70160156 13.77289608 6.01953125 16.71484375 C2.54847013 21.08304067 0.0481762 22.73449568 -5.375 23.4375 C-10.18085073 22.85748353 -11.6577228 21.42379616 -15 18 C-15 17.34 -15 16.68 -15 16 C-15.66 16 -16.32 16 -17 16 C-17.91181011 7.45600154 -17.91181011 7.45600154 -15.76953125 4.03515625 C-10.97645522 -0.8052588 -6.6819805 -1.69659661 0 0 Z " fill="#5477FE" transform="translate(231,32)"/>
<path d="M0 0 C6.6 0 13.2 0 20 0 C20 0.33 20 0.66 20 1 C14.06 1 8.12 1 2 1 C2 32.35 2 63.7 2 96 C9.26 96 16.52 96 24 96 C24 70.92 24 45.84 24 20 C26.44133237 22.44133237 26.23458132 23.74108811 26.24884033 27.07189941 C26.24164978 27.77536499 26.23445923 28.47883057 26.22705078 29.20361328 C26.22734283 29.9451767 26.22763489 30.68674011 26.22793579 31.45077515 C26.22653994 33.90740571 26.21096698 36.36373478 26.1953125 38.8203125 C26.19158327 40.52139114 26.18873587 42.22247192 26.18673706 43.92355347 C26.17909349 48.40510976 26.15943884 52.88653683 26.1373291 57.36804199 C26.11688622 61.93935396 26.10773868 66.51068677 26.09765625 71.08203125 C26.07619359 80.05474434 26.04204896 89.02736143 26 98 C21.85418113 98.02886751 17.70838784 98.04675327 13.5625 98.0625 C11.78649414 98.07506836 11.78649414 98.07506836 9.97460938 98.08789062 C8.84990234 98.09111328 7.72519531 98.09433594 6.56640625 98.09765625 C5.00321655 98.10551147 5.00321655 98.10551147 3.40844727 98.11352539 C1 98 1 98 0 97 C-0.09529612 93.98649762 -0.12551904 90.99595894 -0.11352539 87.98217773 C-0.11367142 87.03593536 -0.11381744 86.08969299 -0.1139679 85.11477661 C-0.11326836 81.97102608 -0.10547409 78.82733399 -0.09765625 75.68359375 C-0.09579221 73.51025932 -0.09436824 71.33692448 -0.09336853 69.16358948 C-0.08954221 63.43098805 -0.07971097 57.69841177 -0.06866455 51.96582031 C-0.05845287 46.12109721 -0.05387143 40.27637007 -0.04882812 34.43164062 C-0.0380888 22.95441423 -0.02049108 11.47721314 0 0 Z " fill="#33366E" transform="translate(717,127)"/>
<path d="M0 0 C2 3 2 3 2 6 C2.66 6 3.32 6 4 6 C4 24.15 4 42.3 4 61 C-2.27 61 -8.54 61 -15 61 C-15 60.67 -15 60.34 -15 60 C-9.39 60 -3.78 60 2 60 C1.88098373 53.2229609 1.75669088 46.44604577 1.62768555 39.66918945 C1.58459772 37.36778333 1.54290648 35.06635059 1.50268555 32.76489258 C1.4443435 29.44083666 1.38083954 26.11691153 1.31640625 22.79296875 C1.29969376 21.7779277 1.28298126 20.76288666 1.26576233 19.71708679 C1.13126196 13.10721389 0.68547863 6.57544636 0 0 Z " fill="#5F82FE" transform="translate(124,175)"/>
<path d="M0 0 C0.33 0 0.66 0 1 0 C1 17.49 1 34.98 1 53 C0.01 52.67 -0.98 52.34 -2 52 C-1.8827136 44.7550005 -1.75787765 37.51015987 -1.62768555 30.26538086 C-1.58426057 27.79861431 -1.54259128 25.33181622 -1.50268555 22.86499023 C-1.44516555 19.32786534 -1.38141925 15.79090034 -1.31640625 12.25390625 C-1.29969376 11.14350479 -1.28298126 10.03310333 -1.26576233 8.88905334 C-1.24581711 7.86807053 -1.22587189 6.84708771 -1.20532227 5.79516602 C-1.18977798 4.89137711 -1.1742337 3.9875882 -1.15821838 3.05641174 C-1 1 -1 1 0 0 Z " fill="#BEBFCF" transform="translate(666,85)"/>
<path d="M0 0 C2.72426311 2.35277269 3.8141763 4.62496331 5 8 C4.01 8.495 4.01 8.495 3 9 C2.01 7.02 1.02 5.04 0 3 C-0.33 6.3 -0.66 9.6 -1 13 C-1.33 13 -1.66 13 -2 13 C-2 9.04 -2 5.08 -2 1 C-1.34 0.67 -0.68 0.34 0 0 Z " fill="#2E3370" transform="translate(321,133)"/>
<path d="M0 0 C0 0.66 0 1.32 0 2 C-1.6796875 3.5078125 -1.6796875 3.5078125 -3.875 5.125 C-4.95394531 5.93324219 -4.95394531 5.93324219 -6.0546875 6.7578125 C-8 8 -8 8 -10 8 C-8.48502075 3.75805811 -4.70198172 0 0 0 Z " fill="#23286A" transform="translate(726,83)"/>
<path d="M0 0 C0.33 0 0.66 0 1 0 C0.50269348 4.97306516 -0.55302334 8.63799813 -3 13 C-3.33 13 -3.66 13 -4 13 C-4 11.35 -4 9.7 -4 8 C-3.34 8 -2.68 8 -2 8 C-1.7834375 6.576875 -1.7834375 6.576875 -1.5625 5.125 C-1 2 -1 2 0 0 Z " fill="#303472" transform="translate(405,161)"/>
<path d="M0 0 C2.32240046 2.85021875 3.93906527 5.46355091 5 9 C4.625 11.3125 4.625 11.3125 4 13 C3.67 11.02 3.34 9.04 3 7 C2.34 7 1.68 7 1 7 C-0.0625 4.625 -0.0625 4.625 -1 2 C-0.67 1.34 -0.34 0.68 0 0 Z " fill="#43477D" transform="translate(1009,151)"/>
<path d="M0 0 C0.33 0.99 0.66 1.98 1 3 C-0.65 4.65 -2.3 6.3 -4 8 C-4.99 7.67 -5.98 7.34 -7 7 C-4.69 4.69 -2.38 2.38 0 0 Z " fill="#1A2066" transform="translate(927,136)"/>
<path d="M0 0 C0.33 0 0.66 0 1 0 C1.33 5.28 1.66 10.56 2 16 C1.67 16 1.34 16 1 16 C1 14.02 1 12.04 1 10 C0.34 10 -0.32 10 -1 10 C-0.67 6.7 -0.34 3.4 0 0 Z " fill="#718FFE" transform="translate(227,109)"/>
<path d="M0 0 C0.33 0.66 0.66 1.32 1 2 C0.06421005 4.35981813 -0.93347808 6.69631264 -2 9 C-2.66 8.01 -3.32 7.02 -4 6 C-3.25 3.375 -3.25 3.375 -2 1 C-1.34 0.67 -0.68 0.34 0 0 Z " fill="#343876" transform="translate(414,143)"/>
<path d="M0 0 C0.66 0.33 1.32 0.66 2 1 C2 1.99 2 2.98 2 4 C-1.3 3.67 -4.6 3.34 -8 3 C-8 2.67 -8 2.34 -8 2 C-5.36 2 -2.72 2 0 2 C0 1.34 0 0.68 0 0 Z " fill="#2C306D" transform="translate(1092,146)"/>
<path d="M0 0 C0.33 0 0.66 0 1 0 C1.25 6.625 1.25 6.625 -1 10 C-1.66 10 -2.32 10 -3 10 C-2.49287967 6.28111761 -1.88391785 3.26545761 0 0 Z " fill="#708EFE" transform="translate(237,40)"/>
</svg>
